<mxfile host="app.diagrams.net" modified="2023-05-24T05:35:32.244Z" agent="5.0 (Macintosh; Intel Mac OS X 10_15_7) AppleWebKit/537.36 (KHTML, like Gecko) Chrome/113.0.0.0 Safari/537.36" etag="q9m94mxJerkl0wMGsitV" version="20.8.21" type="github">
  <diagram name="第 1 页" id="CxNV2_DBsOv5uQ48vzlA">
    <mxGraphModel dx="1434" dy="828" grid="1" gridSize="10" guides="1" tooltips="1" connect="1" arrows="1" fold="1" page="1" pageScale="1" pageWidth="3300" pageHeight="4681" math="0" shadow="0">
      <root>
        <mxCell id="0" />
        <mxCell id="1" parent="0" />
        <mxCell id="QrJ_XhkReMuVfLxHztqe-14" style="edgeStyle=orthogonalEdgeStyle;rounded=0;orthogonalLoop=1;jettySize=auto;html=1;exitX=0;exitY=0.5;exitDx=0;exitDy=0;entryX=1;entryY=0.5;entryDx=0;entryDy=0;fontSize=52;" edge="1" parent="1" source="8EsmIynt7PhqSQ1WWh0B-13" target="QrJ_XhkReMuVfLxHztqe-13">
          <mxGeometry relative="1" as="geometry" />
        </mxCell>
        <mxCell id="QrJ_XhkReMuVfLxHztqe-18" value="callback" style="edgeLabel;html=1;align=center;verticalAlign=middle;resizable=0;points=[];fontSize=12;" vertex="1" connectable="0" parent="QrJ_XhkReMuVfLxHztqe-14">
          <mxGeometry x="-0.2129" relative="1" as="geometry">
            <mxPoint as="offset" />
          </mxGeometry>
        </mxCell>
        <mxCell id="8EsmIynt7PhqSQ1WWh0B-13" value="&lt;font style=&quot;font-size: 18px;&quot;&gt;AJob&lt;/font&gt;" style="ellipse;whiteSpace=wrap;html=1;labelPosition=center;verticalLabelPosition=top;align=center;verticalAlign=bottom;fillColor=#f8cecc;strokeColor=#b85450;fontSize=18;" parent="1" vertex="1">
          <mxGeometry x="740" y="200" width="620" height="490" as="geometry" />
        </mxCell>
        <mxCell id="8EsmIynt7PhqSQ1WWh0B-29" value="Evalhub APIServer" style="rounded=1;whiteSpace=wrap;html=1;fillColor=#f8cecc;strokeColor=#b85450;fontSize=18;" parent="1" vertex="1">
          <mxGeometry x="60" y="500" width="400" height="260" as="geometry" />
        </mxCell>
        <mxCell id="8EsmIynt7PhqSQ1WWh0B-30" value="AJob Watcher" style="rounded=1;whiteSpace=wrap;html=1;fillColor=#dae8fc;strokeColor=#6c8ebf;fontSize=18;" parent="1" vertex="1">
          <mxGeometry x="340" y="680" width="120" height="60" as="geometry" />
        </mxCell>
        <mxCell id="8EsmIynt7PhqSQ1WWh0B-40" value="" style="group;movable=0;resizable=0;rotatable=0;deletable=0;editable=0;locked=1;connectable=0;" parent="1" vertex="1" connectable="0">
          <mxGeometry x="900" y="250" width="270" height="130" as="geometry" />
        </mxCell>
        <mxCell id="8EsmIynt7PhqSQ1WWh0B-38" value="Evaluator" style="rounded=1;whiteSpace=wrap;html=1;fillColor=#dae8fc;strokeColor=#6c8ebf;fontSize=18;" parent="8EsmIynt7PhqSQ1WWh0B-40" vertex="1">
          <mxGeometry width="270" height="130" as="geometry" />
        </mxCell>
        <mxCell id="8EsmIynt7PhqSQ1WWh0B-39" value="infer proxy cli" style="rounded=1;whiteSpace=wrap;html=1;fillColor=#dae8fc;strokeColor=#6c8ebf;fontSize=18;" parent="8EsmIynt7PhqSQ1WWh0B-40" vertex="1">
          <mxGeometry y="100" width="200" height="30" as="geometry" />
        </mxCell>
        <mxCell id="8EsmIynt7PhqSQ1WWh0B-41" value="Snap Solution Image(Platform)" style="rounded=1;whiteSpace=wrap;html=1;fillColor=#dae8fc;strokeColor=#6c8ebf;fontSize=18;" parent="1" vertex="1">
          <mxGeometry x="890" y="430" width="340" height="60" as="geometry" />
        </mxCell>
        <mxCell id="8EsmIynt7PhqSQ1WWh0B-49" style="edgeStyle=orthogonalEdgeStyle;rounded=0;orthogonalLoop=1;jettySize=auto;html=1;exitX=1;exitY=0.5;exitDx=0;exitDy=0;entryX=0;entryY=0.5;entryDx=0;entryDy=0;" parent="1" source="8EsmIynt7PhqSQ1WWh0B-42" target="8EsmIynt7PhqSQ1WWh0B-44" edge="1">
          <mxGeometry relative="1" as="geometry" />
        </mxCell>
        <mxCell id="8EsmIynt7PhqSQ1WWh0B-42" value="Snap Base Image" style="rounded=1;whiteSpace=wrap;html=1;fillColor=#dae8fc;strokeColor=#6c8ebf;fontSize=18;" parent="1" vertex="1">
          <mxGeometry x="890" y="515" width="340" height="60" as="geometry" />
        </mxCell>
        <mxCell id="8EsmIynt7PhqSQ1WWh0B-44" value="&lt;font style=&quot;font-size: 18px;&quot;&gt;AJob&lt;/font&gt;" style="ellipse;whiteSpace=wrap;html=1;labelPosition=center;verticalLabelPosition=top;align=center;verticalAlign=bottom;fillColor=#f8cecc;strokeColor=#b85450;fontSize=18;" parent="1" vertex="1">
          <mxGeometry x="1490" y="455" width="340" height="180" as="geometry" />
        </mxCell>
        <mxCell id="8EsmIynt7PhqSQ1WWh0B-45" value="&lt;font style=&quot;font-size: 18px;&quot;&gt;AJob&lt;/font&gt;" style="ellipse;whiteSpace=wrap;html=1;labelPosition=center;verticalLabelPosition=top;align=center;verticalAlign=bottom;fillColor=#f8cecc;strokeColor=#b85450;fontSize=18;" parent="1" vertex="1">
          <mxGeometry x="1510" y="710" width="340" height="180" as="geometry" />
        </mxCell>
        <mxCell id="8EsmIynt7PhqSQ1WWh0B-46" value="&lt;font style=&quot;font-size: 18px;&quot;&gt;Korok&lt;/font&gt;" style="ellipse;whiteSpace=wrap;html=1;labelPosition=center;verticalLabelPosition=top;align=center;verticalAlign=bottom;fillColor=#f8cecc;strokeColor=#b85450;fontSize=18;" parent="1" vertex="1">
          <mxGeometry x="1510" y="960" width="340" height="180" as="geometry" />
        </mxCell>
        <mxCell id="QrJ_XhkReMuVfLxHztqe-5" style="edgeStyle=orthogonalEdgeStyle;rounded=0;orthogonalLoop=1;jettySize=auto;html=1;exitX=1;exitY=0.5;exitDx=0;exitDy=0;entryX=0;entryY=0.5;entryDx=0;entryDy=0;" edge="1" parent="1" source="QrJ_XhkReMuVfLxHztqe-1" target="8EsmIynt7PhqSQ1WWh0B-45">
          <mxGeometry relative="1" as="geometry" />
        </mxCell>
        <mxCell id="QrJ_XhkReMuVfLxHztqe-6" style="edgeStyle=orthogonalEdgeStyle;rounded=0;orthogonalLoop=1;jettySize=auto;html=1;exitX=1;exitY=0.5;exitDx=0;exitDy=0;entryX=0;entryY=0.5;entryDx=0;entryDy=0;" edge="1" parent="1" source="QrJ_XhkReMuVfLxHztqe-1" target="8EsmIynt7PhqSQ1WWh0B-46">
          <mxGeometry relative="1" as="geometry" />
        </mxCell>
        <mxCell id="QrJ_XhkReMuVfLxHztqe-12" style="edgeStyle=orthogonalEdgeStyle;rounded=0;orthogonalLoop=1;jettySize=auto;html=1;exitX=0;exitY=0.5;exitDx=0;exitDy=0;fontSize=52;entryX=1;entryY=0.5;entryDx=0;entryDy=0;" edge="1" parent="1" source="QrJ_XhkReMuVfLxHztqe-1" target="QrJ_XhkReMuVfLxHztqe-13">
          <mxGeometry relative="1" as="geometry">
            <mxPoint x="530" y="470" as="targetPoint" />
            <Array as="points">
              <mxPoint x="600" y="885" />
              <mxPoint x="600" y="570" />
            </Array>
          </mxGeometry>
        </mxCell>
        <mxCell id="QrJ_XhkReMuVfLxHztqe-19" value="callback" style="edgeLabel;html=1;align=center;verticalAlign=middle;resizable=0;points=[];fontSize=12;" vertex="1" connectable="0" parent="QrJ_XhkReMuVfLxHztqe-12">
          <mxGeometry x="0.0835" y="2" relative="1" as="geometry">
            <mxPoint as="offset" />
          </mxGeometry>
        </mxCell>
        <mxCell id="QrJ_XhkReMuVfLxHztqe-1" value="&lt;font style=&quot;font-size: 18px;&quot;&gt;AJob&lt;/font&gt;" style="ellipse;whiteSpace=wrap;html=1;labelPosition=center;verticalLabelPosition=top;align=center;verticalAlign=bottom;fillColor=#f8cecc;strokeColor=#b85450;fontSize=18;" vertex="1" parent="1">
          <mxGeometry x="840" y="790" width="420" height="190" as="geometry" />
        </mxCell>
        <mxCell id="QrJ_XhkReMuVfLxHztqe-2" value="" style="group;movable=1;resizable=1;rotatable=1;deletable=1;editable=1;locked=0;connectable=1;" vertex="1" connectable="0" parent="1">
          <mxGeometry x="925" y="840" width="250" height="90" as="geometry" />
        </mxCell>
        <mxCell id="QrJ_XhkReMuVfLxHztqe-3" value="Inftools Image" style="rounded=1;whiteSpace=wrap;html=1;fillColor=#dae8fc;strokeColor=#6c8ebf;fontSize=18;" vertex="1" parent="QrJ_XhkReMuVfLxHztqe-2">
          <mxGeometry width="250" height="90" as="geometry" />
        </mxCell>
        <mxCell id="QrJ_XhkReMuVfLxHztqe-4" value="infer cli" style="rounded=1;whiteSpace=wrap;html=1;fillColor=#dae8fc;strokeColor=#6c8ebf;fontSize=18;" vertex="1" parent="QrJ_XhkReMuVfLxHztqe-2">
          <mxGeometry y="69.23076923076923" width="185.1851851851852" height="20.76923076923077" as="geometry" />
        </mxCell>
        <mxCell id="QrJ_XhkReMuVfLxHztqe-7" value="&lt;font style=&quot;font-size: 18px;&quot;&gt;AJob&lt;/font&gt;" style="ellipse;whiteSpace=wrap;html=1;labelPosition=center;verticalLabelPosition=top;align=center;verticalAlign=bottom;fillColor=#f8cecc;strokeColor=#b85450;fontSize=18;" vertex="1" parent="1">
          <mxGeometry x="850" y="1090" width="420" height="190" as="geometry" />
        </mxCell>
        <mxCell id="QrJ_XhkReMuVfLxHztqe-8" value="" style="group;movable=1;resizable=1;rotatable=1;deletable=1;editable=1;locked=0;connectable=1;" vertex="1" connectable="0" parent="1">
          <mxGeometry x="945" y="1140" width="250" height="90" as="geometry" />
        </mxCell>
        <mxCell id="QrJ_XhkReMuVfLxHztqe-9" value="Inftools Image" style="rounded=1;whiteSpace=wrap;html=1;fillColor=#dae8fc;strokeColor=#6c8ebf;fontSize=18;" vertex="1" parent="QrJ_XhkReMuVfLxHztqe-8">
          <mxGeometry width="250" height="90" as="geometry" />
        </mxCell>
        <mxCell id="QrJ_XhkReMuVfLxHztqe-10" value="infer cli" style="rounded=1;whiteSpace=wrap;html=1;fillColor=#dae8fc;strokeColor=#6c8ebf;fontSize=18;" vertex="1" parent="QrJ_XhkReMuVfLxHztqe-8">
          <mxGeometry y="69.23076923076923" width="185.1851851851852" height="20.76923076923077" as="geometry" />
        </mxCell>
        <mxCell id="QrJ_XhkReMuVfLxHztqe-11" value="&lt;font style=&quot;font-size: 52px;&quot;&gt;...&lt;/font&gt;" style="text;html=1;strokeColor=none;fillColor=none;align=center;verticalAlign=middle;whiteSpace=wrap;rounded=0;" vertex="1" parent="1">
          <mxGeometry x="1030" y="1000" width="60" height="30" as="geometry" />
        </mxCell>
        <mxCell id="QrJ_XhkReMuVfLxHztqe-13" value="internal-cb" style="rounded=1;whiteSpace=wrap;html=1;fillColor=#dae8fc;strokeColor=#6c8ebf;fontSize=18;" vertex="1" parent="1">
          <mxGeometry x="340" y="540" width="120" height="60" as="geometry" />
        </mxCell>
        <mxCell id="QrJ_XhkReMuVfLxHztqe-20" value="" style="group;movable=1;resizable=1;rotatable=1;deletable=1;editable=1;locked=0;connectable=1;" vertex="1" connectable="0" parent="1">
          <mxGeometry x="1710" y="1060" width="100" height="50" as="geometry" />
        </mxCell>
        <mxCell id="QrJ_XhkReMuVfLxHztqe-21" value="Nori Proxy" style="rounded=1;whiteSpace=wrap;html=1;fillColor=#dae8fc;strokeColor=#6c8ebf;fontSize=18;" vertex="1" parent="QrJ_XhkReMuVfLxHztqe-20">
          <mxGeometry width="100" height="50" as="geometry" />
        </mxCell>
        <mxCell id="QrJ_XhkReMuVfLxHztqe-23" value="" style="group;movable=1;resizable=1;rotatable=1;deletable=1;editable=1;locked=0;connectable=1;" vertex="1" connectable="0" parent="1">
          <mxGeometry x="1600" y="980" width="160" height="60" as="geometry" />
        </mxCell>
        <mxCell id="QrJ_XhkReMuVfLxHztqe-24" value="Embed Device" style="rounded=1;whiteSpace=wrap;html=1;fillColor=#dae8fc;strokeColor=#6c8ebf;fontSize=18;" vertex="1" parent="QrJ_XhkReMuVfLxHztqe-23">
          <mxGeometry width="160" height="60" as="geometry" />
        </mxCell>
        <mxCell id="QrJ_XhkReMuVfLxHztqe-26" value="&lt;font style=&quot;font-size: 18px;&quot;&gt;HHD Nori&lt;/font&gt;" style="ellipse;whiteSpace=wrap;html=1;labelPosition=center;verticalLabelPosition=top;align=center;verticalAlign=bottom;fillColor=#f8cecc;strokeColor=#b85450;fontSize=18;" vertex="1" parent="1">
          <mxGeometry x="1970" y="950" width="120" height="300" as="geometry" />
        </mxCell>
        <mxCell id="QrJ_XhkReMuVfLxHztqe-28" style="edgeStyle=orthogonalEdgeStyle;rounded=0;orthogonalLoop=1;jettySize=auto;html=1;exitX=1;exitY=0.5;exitDx=0;exitDy=0;fontSize=12;" edge="1" parent="1" source="QrJ_XhkReMuVfLxHztqe-21" target="QrJ_XhkReMuVfLxHztqe-26">
          <mxGeometry relative="1" as="geometry" />
        </mxCell>
        <mxCell id="QrJ_XhkReMuVfLxHztqe-29" value="" style="group;movable=1;resizable=1;rotatable=1;deletable=1;editable=1;locked=0;connectable=1;" vertex="1" connectable="0" parent="1">
          <mxGeometry x="1610" y="770" width="160" height="60" as="geometry" />
        </mxCell>
        <mxCell id="QrJ_XhkReMuVfLxHztqe-30" value="&lt;code&gt;evalcabin Image&lt;/code&gt;" style="rounded=1;whiteSpace=wrap;html=1;fillColor=#dae8fc;strokeColor=#6c8ebf;fontSize=18;" vertex="1" parent="QrJ_XhkReMuVfLxHztqe-29">
          <mxGeometry width="160" height="60" as="geometry" />
        </mxCell>
        <mxCell id="QrJ_XhkReMuVfLxHztqe-33" style="edgeStyle=orthogonalEdgeStyle;rounded=0;orthogonalLoop=1;jettySize=auto;html=1;exitX=0.5;exitY=0;exitDx=0;exitDy=0;fontSize=32;entryX=0.5;entryY=1;entryDx=0;entryDy=0;" edge="1" parent="1" source="QrJ_XhkReMuVfLxHztqe-32" target="QrJ_XhkReMuVfLxHztqe-35">
          <mxGeometry relative="1" as="geometry" />
        </mxCell>
        <mxCell id="QrJ_XhkReMuVfLxHztqe-38" value="&lt;font style=&quot;font-size: 12px;&quot;&gt;部署到设备上&lt;/font&gt;" style="edgeLabel;html=1;align=center;verticalAlign=middle;resizable=0;points=[];fontSize=32;" vertex="1" connectable="0" parent="QrJ_XhkReMuVfLxHztqe-33">
          <mxGeometry x="-0.0941" y="-4" relative="1" as="geometry">
            <mxPoint as="offset" />
          </mxGeometry>
        </mxCell>
        <mxCell id="QrJ_XhkReMuVfLxHztqe-32" value="&lt;font style=&quot;font-size: 32px;&quot;&gt;算法仓发版&lt;/font&gt;" style="text;html=1;strokeColor=none;fillColor=none;align=center;verticalAlign=middle;whiteSpace=wrap;rounded=0;fontSize=12;" vertex="1" parent="1">
          <mxGeometry x="1495" y="1280" width="270" height="30" as="geometry" />
        </mxCell>
        <mxCell id="QrJ_XhkReMuVfLxHztqe-34" value="" style="group;movable=1;resizable=1;rotatable=1;deletable=1;editable=1;locked=0;connectable=1;" vertex="1" connectable="0" parent="1">
          <mxGeometry x="1580" y="1060" width="100" height="50" as="geometry" />
        </mxCell>
        <mxCell id="QrJ_XhkReMuVfLxHztqe-35" value="NFS" style="rounded=1;whiteSpace=wrap;html=1;fillColor=#dae8fc;strokeColor=#6c8ebf;fontSize=18;" vertex="1" parent="QrJ_XhkReMuVfLxHztqe-34">
          <mxGeometry width="100" height="50" as="geometry" />
        </mxCell>
        <mxCell id="QrJ_XhkReMuVfLxHztqe-37" style="edgeStyle=orthogonalEdgeStyle;rounded=0;orthogonalLoop=1;jettySize=auto;html=1;exitX=1;exitY=0.5;exitDx=0;exitDy=0;entryX=0.75;entryY=0;entryDx=0;entryDy=0;fontSize=32;" edge="1" parent="1" source="QrJ_XhkReMuVfLxHztqe-24" target="QrJ_XhkReMuVfLxHztqe-21">
          <mxGeometry relative="1" as="geometry" />
        </mxCell>
        <mxCell id="QrJ_XhkReMuVfLxHztqe-39" value="Thirdparty Solution Image" style="rounded=1;whiteSpace=wrap;html=1;fillColor=#dae8fc;strokeColor=#6c8ebf;fontSize=18;" vertex="1" parent="1">
          <mxGeometry x="1540" y="515" width="240" height="60" as="geometry" />
        </mxCell>
      </root>
    </mxGraphModel>
  </diagram>
</mxfile>
